# AST/ASF file generated using VICON BodyLanguage
# -----------------------------------------------
:version 1.10
:name VICON
:units
  mass 1.0
  length 0.45
  angle deg
:documentation
   .ast/.asf automatically generated from VICON data using
   VICON BodyBuilder and BodyLanguage model FoxedUp or BRILLIANT.MOD
:root
   order TX TY TZ RX RY RZ
   axis XYZ
   position 0 0 0  
   orientation 0 0 0 
:bonedata
  begin
     id 1 
     name lhipjoint
     direction 0.643824 -0.71708 0.266994 
     length 2.52133 
     axis 0 0 0  XYZ
  end
  begin
     id 2 
     name lfemur
     direction 0.34202 -0.939693 0  
     length 7.51824  
     axis 0 0 20  XYZ
    dof rx ry rz
    limits (-160.0 20.0)
           (-70.0 70.0)
           (-60.0 70.0)
  end
  begin
     id 3 
     name ltibia
     direction 0.34202 -0.939693 0   
     length 7.3685   
     axis 0 0 20   XYZ
    dof rx
    limits (-10.0 170.0)
  end
  begin
     id 4 
     name lfoot
     direction 0.105419 -0.289636 0.951314   
     length 2.20972   
     axis -90 7.62852e-016 20   XYZ
    dof rx rz
    limits (-45.0 90.0)
           (-70.0 20.0)
  end
  begin
     id 5 
     name ltoes
     direction 1.53549e-011 -4.21833e-011 1   
     length 1.10139   
     axis -90 7.62852e-016 20   XYZ
    dof rx
    limits (-90.0 20.0)
  end
  begin
     id 6 
     name rhipjoint
     direction -0.608823 -0.743445 0.276811   
     length 2.43192  
     axis 0 0 0  XYZ 
  end
  begin
     id 7 
     name rfemur
     direction -0.34202 -0.939693 0   
     length 7.69715   
     axis 0 0 -20   XYZ
    dof rx ry rz
    limits (-160.0 20.0)
           (-70.0 70.0)
           (-70.0 60.0)
  end
  begin
     id 8 
     name rtibia
     direction -0.34202 -0.939693 0   
     length 7.44924   
     axis 0 0 -20   XYZ
    dof rx
    limits (-10.0 170.0)
 end
 begin
     id 9 
     name rfoot
     direction -0.103614 -0.284677 0.953007   
     length 2.22623  
     axis -90 -7.62852e-016 -20   XYZ
    dof rx rz
    limits (-45.0 90.0)
           (-20.0 70.0)
  end
  begin
     id 10 
     name rtoes
     direction -1.53537e-011 -4.22026e-011 1   
     length 1.11   
     axis -90 -7.62852e-016 -20   XYZ
    dof rx
    limits (-90.0 20.0)
  end
  begin
     id 11 
     name lowerback
     direction -0.0101212 0.99662 -0.0815298   
     length 2.08277   
     axis 0 0 0   XYZ
    dof rx ry rz
    limits (-20.0 45.0)
           (-30.0 30.0)
           (-30.0 30.0)
  end
  begin
     id 12 
     name upperback
     direction 0.024314 0.999591 -0.0150645   
     length 2.08524   
     axis 0 0 0   XYZ
    dof rx ry rz
    limits (-20.0 45.0)
           (-30.0 30.0)
           (-30.0 30.0)
  end
  begin
     id 13 
     name thorax
     direction 0.0285959 0.999323 0.0231357   
     length 2.09645   
     axis 0 0 0   XYZ
    dof rx ry rz
    limits (-20.0 45.0)
           (-30.0 30.0)
           (-30.0 30.0)
  end
  begin
     id 14 
     name lowerneck
     direction -0.065512 0.979301 0.191515   
     length 1.63798   
     axis 0 0 0   XYZ
    dof rx ry rz
    limits (-20.0 45.0)
           (-30.0 30.0)
           (-30.0 30.0)
  end
  begin
     id 15 
     name upperneck
     direction 0.0498479 0.98191 -0.182667   
     length 1.68731   
     axis 0 0 0   XYZ
    dof rx ry rz
    limits (-20.0 45.0)
           (-30.0 30.0)
           (-30.0 30.0)
  end
  begin
     id 16
     name head
     direction 0.0230358 0.996257 -0.0833175  
     length 1.69785  
     axis 0 0 0   XYZ
    dof rx ry rz
    limits (-20.0 45.0)
           (-30.0 30.0)
           (-30.0 30.0)
  end
  begin
     id 17 
     name lclavicle
     direction 0.967963 0.201165 -0.150269  
     length 3.63976  
     axis 0 0 0   XYZ
    dof ry rz
    limits (-20.0 10.0)
           (0.0 20.0)
  end
  begin
     id 18 
     name lhumerus
     direction 1 -4.48954e-011 -2.92837e-028   
     length 5.32462   
     axis 180 -30 -90   XYZ
    dof rx ry rz
    limits (-60.0 90.0)
           (-90.0 90.0)
           (-90.0 90.0)
  end
  begin
     id 19
     name lradius
     direction 1 -4.48958e-011 -6.39511e-027   
     length 3.48402   
     axis 180 -30 -90   XYZ
    dof rx
    limits (-10.0 170.0)
  end
  begin
     id 20
     name lwrist
     direction 1 -4.48975e-011 -1.1413e-026   
     length 1.74201   
     axis 6.88575e-015 90 90   XYZ
    dof ry
    limits (-180.0 0.0)
 end
  begin
     id 21 
     name lhand
     direction 1 -4.48899e-011 -2.28192e-026   
     length 0.572476   
     axis 1.45643e-014 90 90   XYZ
    dof rx rz
    limits (-90.0 90.0)
           (-45.0 45.0)
  end
  begin
     id 22 
     name lfingers
     direction 1 -4.49155e-011 -4.5684e-026   
     length 0.461545   
     axis 2.91283e-014 90 90   XYZ
    dof rx
    limits (0.0 90.0)
  end
  begin
     id 23
     name lthumb
     direction 0.707107 -6.34943e-011 0.707107   
     length 0.662688   
     axis -90 45 -2.25915e-014   XYZ
    dof rx rz
    limits (-45.0 45.0)
           (-45.0 45.0)
  end
  begin
     id 24 
     name rclavicle
     direction -0.964103 0.264019 -0.0282629   
     length 3.54491  
     axis 0 0 0   XYZ 
    dof ry rz
    limits (-10.0 20.0)
           (-20.0 0.0)
  end
  begin
     id 25 
     name rhumerus
     direction -1 -4.48964e-011 -2.45032e-027  
     length 5.33589   
     axis 180 30 90   XYZ
    dof rx ry rz
    limits (-90.0 60.0)
           (-90.0 90.0)
           (-90.0 90.0)
  end
  begin
     id 26 
     name rradius
     direction -1 -4.48987e-011 -1.55093e-027   
     length 3.64134   
     axis 180 30 90   XYZ
    dof rx
    limits (-10.0 170.0)
  end
  begin
     id 27 
     name rwrist
     direction -1 -4.4897e-011 -1.14128e-026   
     length 1.82067   
     axis 6.88575e-015 -90 -90   XYZ
    dof ry
    limits (-180.0 0.0)
  end
  begin
     id 28
     name rhand
     direction -1 -4.49021e-011 -2.28301e-026   
     length 0.734811   
     axis 1.45643e-014 -90 -90   XYZ
    dof rx rz
    limits (-90.0 90.0)
           (-45.0 45.0)
  end
  begin
     id 29
     name rfingers
     direction -1 -4.48862e-011 -4.56319e-026   
     length 0.592424   
     axis 2.91283e-014 -90 -90   XYZ
    dof rx
    limits (0.0 90.0)
  end
  begin
     id 30
     name rthumb
     direction -0.707107 -6.34978e-011 0.707107   
     length 0.850605   
     axis -90 -45 2.25915e-014   XYZ
    dof rx rz
    limits (-45.0 45.0)
           (-45.0 45.0)
  end
:hierarchy
  begin
    root lhipjoint rhipjoint lowerback
    lhipjoint lfemur
    lfemur ltibia
    ltibia lfoot
    lfoot ltoes
    rhipjoint rfemur
    rfemur rtibia
    rtibia rfoot
    rfoot rtoes
    lowerback upperback
    upperback thorax
    thorax lowerneck lclavicle rclavicle
    lowerneck upperneck
    upperneck head
    lclavicle lhumerus
    lhumerus lradius
    lradius lwrist
    lwrist lhand lthumb
    lhand lfingers
    rclavicle rhumerus
    rhumerus rradius
    rradius rwrist
    rwrist rhand rthumb
    rhand rfingers
  end

#!OML:ASF F:\VICON\USERDATA\INSTALL\rory3\rory3.ASF
:FULLY-SPECIFIED
:DEGREES
115
root -0.202257 17.7011 13.4075 -172.967 -0.394905 -181.988
lowerback 3.69433 -0.83088 -4.03613
upperback -0.212441 -1.25795 2.27633
thorax -2.1548 -0.579707 4.69111
lowerneck -16.5166 -1.47496 -8.10399
upperneck 39.7892 6.31841 -1.01553
head 17.3176 2.71948 2.65739
rclavicle -7.25564e-015 -3.97569e-015
rhumerus -34.3845 -9.33521 -78.9844
rradius 35.3989
rwrist 18.3614
rhand -19.632 2.3517
rfingers 7.12502
rthumb 6.69511 -27.5225
lclavicle -7.25564e-015 -3.97569e-015
lhumerus -26.433 8.71246 81.9806
lradius 34.398
lwrist -4.55505
lhand -16.3219 23.416
lfingers 7.12502
lthumb 9.8896 53.1637
rfemur -20.0061 1.45198 21.9534
rtibia 33.824
rfoot -17.5954 0.847746
rtoes 13.6339
lfemur -17.7959 1.58242 -23.3633
ltibia 30.9436
lfoot -14.4069 0.0873176
ltoes -15.1791
116
root -0.186869 17.7037 13.4169 -172.94 -0.415363 -181.747
lowerback 3.8031 -0.784557 -3.67372
upperback -0.215185 -1.18605 2.34031
thorax -2.23239 -0.547339 4.55095
lowerneck -16.5127 -1.54237 -8.19188
upperneck 39.8104 6.22199 -0.946059
head 17.3272 2.67687 2.68717
rclavicle -2.48481e-015 1.27222e-014
rhumerus -34.2347 -9.30972 -78.9388
rradius 35.5343
rwrist 18.2331
rhand -19.5863 2.2194
rfingers 7.12502
rthumb 6.73914 -27.6534
lclavicle -2.48481e-015 1.27222e-014
lhumerus -26.3547 8.8638 82.1485
lradius 33.9899
lwrist -4.85054
lhand -16.2913 23.3748
lfingers 7.12502
lthumb 9.91908 53.1211
rfemur -20.0067 1.48831 22.2606
rtibia 33.6791
rfoot -17.4812 0.887157
rtoes 14.3425
lfemur -18.3943 1.78259 -23.073
ltibia 31.8293
lfoot -14.1577 0.019155
ltoes -18.3019
117
root -0.16956 17.7114 13.4245 -172.927 -0.442552 -181.743
lowerback 3.92136 -0.7547 -3.6203
upperback -0.214198 -1.14796 2.36085
thorax -2.30245 -0.52764 4.54266
lowerneck -16.4629 -1.55591 -8.22781
upperneck 39.7703 6.18586 -0.9149
head 17.2907 2.66349 2.69712
rclavicle 1.0138e-014 7.95139e-015
rhumerus -34.086 -9.25228 -78.8772
rradius 35.5968
rwrist 18.0986
rhand -19.5703 2.40282
rfingers 7.12502
rthumb 6.7546 -27.4694
lclavicle 1.0138e-014 7.95139e-015
lhumerus -26.377 9.09109 82.2707
lradius 33.7266
lwrist -5.2541
lhand -16.7407 22.5963
lfingers 7.12502
lthumb 9.4855 52.3628
rfemur -19.9425 1.46435 22.3191
rtibia 33.4847
rfoot -17.3414 0.917346
rtoes 14.7118
lfemur -18.995 1.87588 -23.0127
ltibia 32.8204
lfoot -13.8596 -0.134993
ltoes -18.9832
118
root -0.153774 17.7155 13.4262 -172.995 -0.431526 -181.93
lowerback 4.08975 -0.745774 -3.82727
upperback -0.206655 -1.15027 2.35496
thorax -2.38535 -0.52396 4.65785
lowerneck -16.4219 -1.52509 -8.14788
upperneck 39.7498 6.23743 -0.990959
head 17.2729 2.68977 2.65707
rclavicle -2.01766e-014 2.14687e-014
rhumerus -33.9338 -9.03924 -78.8522
rradius 35.5997
rwrist 17.9604
rhand -19.7354 2.57947
rfingers 7.12502
rthumb 6.59528 -27.2978
lclavicle -2.01766e-014 2.14687e-014
lhumerus -26.5637 9.39464 82.3168
lradius 33.5849
lwrist -5.7847
lhand -17.6888 21.1461
lfingers 7.12502
lthumb 8.57064 50.9522
rfemur -19.7638 1.44009 22.1682
rtibia 33.2605
rfoot -17.1608 0.910836
rtoes 14.4422
lfemur -19.507 1.9837 -23.1825
ltibia 33.8624
lfoot -13.4297 -0.222147
ltoes -19.7349
119
root -0.138387 17.7202 13.4288 -173.086 -0.413786 -181.983
lowerback 4.25158 -0.678156 -3.82295
upperback -0.18402 -1.06558 2.34444
thorax -2.46238 -0.480444 4.64273
lowerneck -16.3553 -1.55581 -8.1471
upperneck 39.7509 6.1914 -0.978353
head 17.258 2.67917 2.6535
rclavicle -1.74931e-014 -1.90833e-014
rhumerus -33.8206 -9.05296 -78.7643
rradius 35.6315
rwrist 17.9037
rhand -19.8137 2.64225
rfingers 7.12502
rthumb 6.51965 -27.2374
lclavicle -1.74931e-014 -1.90833e-014
lhumerus -26.6185 9.5635 82.4029
lradius 33.25
lwrist -6.16953
lhand -18.2715 20.054
lfingers 7.12502
lthumb 8.00826 49.8823
rfemur -19.5464 1.49378 22.1566
rtibia 33.0363
rfoot -17.1219 0.933595
rtoes 14.8273
lfemur -20.0495 2.12503 -23.2079
ltibia 34.9021
lfoot -12.8627 -0.301134
ltoes -20.5711
120
root -0.121666 17.7249 13.4316 -173.124 -0.349754 -181.926
lowerback 4.30178 -0.624737 -3.67964
upperback -0.124329 -0.990309 2.32564
thorax -2.43961 -0.447106 4.53737
lowerneck -16.3445 -1.55825 -8.16263
upperneck 39.7406 6.14905 -0.892167
head 17.2443 2.67089 2.68564
rclavicle 2.5842e-015 -8.74653e-015
rhumerus -33.5915 -9.03112 -78.7805
rradius 35.5528
rwrist 17.9027
rhand -20.0258 2.77355
rfingers 7.12502
rthumb 6.31494 -27.1123
lclavicle 2.5842e-015 -8.74653e-015
lhumerus -26.5763 9.71278 82.4522
lradius 32.8752
lwrist -6.23996
lhand -18.5726 19.7962
lfingers 7.12502
lthumb 7.71769 49.6354
rfemur -19.3897 1.64933 22.2704
rtibia 32.7945
rfoot -17.1634 0.867544
rtoes 15.6364
lfemur -20.7082 2.24674 -23.0782
ltibia 35.9742
lfoot -12.2458 -0.454981
ltoes -21.0861
121
root -0.107059 17.7324 13.4293 -173.246 -0.332615 -181.936
lowerback 4.38061 -0.608706 -3.63718
upperback -0.0261125 -0.971305 2.33769
thorax -2.38491 -0.442428 4.52493
lowerneck -16.3185 -1.55563 -8.14734
upperneck 39.6704 6.16036 -0.975759
head 17.2042 2.66621 2.64278
rclavicle 1.08338e-014 1.11319e-014
rhumerus -33.3191 -8.88469 -78.7705
rradius 35.474
rwrist 17.9149
rhand -20.1829 2.80992
rfingers 7.12502
rthumb 6.16322 -27.0804
lclavicle 1.08338e-014 1.11319e-014
lhumerus -26.5551 10.0148 82.5087
lradius 32.5279
lwrist -6.3242
lhand -18.5043 19.8588
lfingers 7.12502
lthumb 7.78362 49.6955
rfemur -19.125 1.61832 22.3239
rtibia 32.5186
rfoot -17.0928 0.852675
rtoes 16.0307
lfemur -21.2948 2.2699 -23.0064
ltibia 37.1103
lfoot -11.6188 -0.602486
ltoes -20.9554
122
root -0.0931774 17.7413 13.4271 -173.333 -0.360782 -181.898
lowerback 4.50666 -0.595399 -3.5783
upperback -0.0217053 -0.955546 2.41524
thorax -2.45253 -0.434697 4.57401
lowerneck -16.2517 -1.61068 -8.25796
upperneck 39.7244 6.17272 -1.02499
head 17.2213 2.6568 2.64559
rclavicle 2.98177e-016 -3.18055e-014
rhumerus -33.1552 -8.76309 -78.6444
rradius 35.4347
rwrist 17.9653
rhand -20.1251 2.57292
rfingers 7.12502
rthumb 6.21909 -27.3158
lclavicle 2.98177e-016 -3.18055e-014
lhumerus -26.6573 10.3587 82.6121
lradius 32.1822
lwrist -6.48866
lhand -18.2685 20.1345
lfingers 7.12502
lthumb 8.01124 49.9627
rfemur -18.886 1.51979 22.4371
rtibia 32.2199
rfoot -16.9701 0.818287
rtoes 16.0883
lfemur -21.964 2.30734 -22.8833
ltibia 38.3441
lfoot -10.9032 -0.799647
ltoes -21.1751
123
root -0.0810138 17.7513 13.4314 -173.294 -0.0641513 -181.881
lowerback 4.60503 -0.43295 -3.47921
upperback -0.0702812 -0.73595 2.3705
thorax -2.5828 -0.321911 4.45947
lowerneck -16.252 -1.68909 -8.27477
upperneck 39.8357 6.06182 -0.931118
head 17.2825 2.62594 2.67776
rclavicle 1.78906e-015 1.74931e-014
rhumerus -33.1265 -8.93322 -78.5324
rradius 35.4482
rwrist 18.0576
rhand -20.0199 2.63481
rfingers 7.12502
rthumb 6.32059 -27.2509
lclavicle 1.78906e-015 1.74931e-014
lhumerus -26.8073 10.6356 82.6132
lradius 31.8935
lwrist -6.84038
lhand -17.4097 21.2694
lfingers 7.12502
lthumb 8.84002 51.0642
rfemur -18.823 1.62249 22.4715
rtibia 31.8929
rfoot -16.7032 0.900168
rtoes 16.3288
lfemur -22.8337 2.72114 -22.8464
ltibia 39.6781
lfoot -10.219 -1.00986
ltoes -22.5167
